<mxfile host="app.diagrams.net" modified="2023-08-22T02:40:50.368Z" agent="Mozilla/5.0 (Windows NT 10.0; Win64; x64) AppleWebKit/537.36 (KHTML, like Gecko) Chrome/116.0.0.0 Safari/537.36" etag="YD34chYdAOIKLi0ZWYnw" version="21.6.8" type="github">
  <diagram name="Page-1" id="HQX26-FW6QK7tv7gS8Q_">
    <mxGraphModel dx="880" dy="478" grid="1" gridSize="10" guides="1" tooltips="1" connect="1" arrows="1" fold="1" page="1" pageScale="1" pageWidth="850" pageHeight="1100" math="0" shadow="0">
      <root>
        <mxCell id="0" />
        <mxCell id="1" parent="0" />
        <mxCell id="DnZILEnsmD29g4cwKQEy-2" value="" style="rounded=0;whiteSpace=wrap;html=1;direction=south;" vertex="1" parent="1">
          <mxGeometry x="400" y="50" width="130" height="220" as="geometry" />
        </mxCell>
        <mxCell id="DnZILEnsmD29g4cwKQEy-4" value="player2(user)&lt;br&gt;" style="shape=umlActor;verticalLabelPosition=bottom;verticalAlign=top;html=1;outlineConnect=0;fillColor=#e1d5e7;strokeColor=#9673a6;" vertex="1" parent="1">
          <mxGeometry x="600" y="120" width="30" height="60" as="geometry" />
        </mxCell>
        <mxCell id="DnZILEnsmD29g4cwKQEy-5" value="&amp;nbsp;player1(komputer)&lt;br&gt;" style="shape=umlActor;verticalLabelPosition=bottom;verticalAlign=top;html=1;outlineConnect=0;fillColor=#d5e8d4;strokeColor=#82b366;" vertex="1" parent="1">
          <mxGeometry x="300" y="120" width="30" height="60" as="geometry" />
        </mxCell>
        <mxCell id="DnZILEnsmD29g4cwKQEy-6" value="Tebak angka" style="ellipse;whiteSpace=wrap;html=1;" vertex="1" parent="1">
          <mxGeometry x="420" y="170" width="90" height="40" as="geometry" />
        </mxCell>
        <mxCell id="DnZILEnsmD29g4cwKQEy-7" value="Random angka" style="ellipse;whiteSpace=wrap;html=1;" vertex="1" parent="1">
          <mxGeometry x="420" y="100" width="90" height="40" as="geometry" />
        </mxCell>
        <mxCell id="DnZILEnsmD29g4cwKQEy-11" value="" style="endArrow=none;html=1;rounded=0;entryX=0.011;entryY=0.8;entryDx=0;entryDy=0;entryPerimeter=0;" edge="1" parent="1" target="DnZILEnsmD29g4cwKQEy-7">
          <mxGeometry width="50" height="50" relative="1" as="geometry">
            <mxPoint x="330" y="160" as="sourcePoint" />
            <mxPoint x="450" y="160" as="targetPoint" />
            <Array as="points">
              <mxPoint x="330" y="160" />
            </Array>
          </mxGeometry>
        </mxCell>
        <mxCell id="DnZILEnsmD29g4cwKQEy-12" value="" style="endArrow=none;html=1;rounded=0;" edge="1" parent="1">
          <mxGeometry width="50" height="50" relative="1" as="geometry">
            <mxPoint x="520" y="190" as="sourcePoint" />
            <mxPoint x="600" y="160" as="targetPoint" />
            <Array as="points">
              <mxPoint x="600" y="160" />
            </Array>
          </mxGeometry>
        </mxCell>
        <mxCell id="DnZILEnsmD29g4cwKQEy-23" value="Game Tebak Angka" style="text;html=1;strokeColor=none;fillColor=none;align=center;verticalAlign=middle;whiteSpace=wrap;rounded=0;fontStyle=2" vertex="1" parent="1">
          <mxGeometry x="420" y="50" width="90" height="30" as="geometry" />
        </mxCell>
      </root>
    </mxGraphModel>
  </diagram>
</mxfile>
